<svg width="16" height="16" viewBox="0 0 25 24" fill="none" xmlns="http://www.w3.org/2000/svg">
<g clip-path="url(#clip0_735_8305)">
<path d="M14.8569 2H6.85693C5.75693 2 4.85693 2.9 4.85693 4V20C4.85693 21.1 5.75693 22 6.85693 22H18.8569C19.9569 22 20.8569 21.1 20.8569 20V8L14.8569 2ZM18.8569 20H6.85693V4H13.8569V9H18.8569V20Z" fill="#6B778C"/>
<path d="M14.2569 15.8L16.2569 16.1C15.9569 16.8 15.5569 17.4 15.0569 17.8C14.5569 18.2 13.8569 18.4 12.9569 18.4C11.6569 18.4 10.6569 18 10.0569 17.1C9.55693 16.4 9.35693 15.6 9.35693 14.5C9.35693 13.3 9.65693 12.3 10.3569 11.6C11.0569 10.9 11.8569 10.5 12.8569 10.5C13.9569 10.5 14.8569 10.9 15.4569 11.6C16.0569 12.3 16.4569 13.5 16.3569 15H11.3569C11.3569 15.6 11.5569 16 11.8569 16.4C12.1569 16.7 12.5569 16.9 12.9569 16.9C13.2569 16.9 13.5569 16.8 13.7569 16.6C13.9569 16.4 14.1569 16.2 14.2569 15.8ZM14.3569 13.8C14.3569 13.2 14.1569 12.8 13.9569 12.5C13.6569 12.2 13.3569 12.1 12.9569 12.1C12.5569 12.1 12.1569 12.3 11.8569 12.6C11.5569 12.9 11.4569 13.3 11.4569 13.9H14.3569V13.8Z" fill="#6B778C"/>
</g>
<defs>
<clipPath id="clip0_735_8305">
<rect width="24" height="24" fill="white" transform="translate(0.856934)"/>
</clipPath>
</defs>
</svg>
